<?xml version="1.0" encoding="utf-8"?>
<!-- Generator: Adobe Illustrator 25.0.1, SVG Export Plug-In . SVG Version: 6.00 Build 0)  -->
<svg version="1.1"
	 id="svg2" inkscape:export-xdpi="96" xmlns:cc="http://creativecommons.org/ns#" xmlns:dc="http://purl.org/dc/elements/1.1/" xmlns:inkscape="http://www.inkscape.org/namespaces/inkscape" xmlns:rdf="http://www.w3.org/1999/02/22-rdf-syntax-ns#" xmlns:sodipodi="http://sodipodi.sourceforge.net/DTD/sodipodi-0.dtd" xmlns:svg="http://www.w3.org/2000/svg"
	 xmlns="http://www.w3.org/2000/svg" xmlns:xlink="http://www.w3.org/1999/xlink" x="0px" y="0px" viewBox="0 0 1190 265"
	 style="enable-background:new 0 0 1190 265;" xml:space="preserve">
<style type="text/css">
	.st0{opacity:0.4;}
	.st1{fill:#303030;}
	.st2{fill:#60A9DD;}
	.st3{fill-rule:evenodd;clip-rule:evenodd;fill:#303030;}
	.st4{fill-rule:evenodd;clip-rule:evenodd;fill:#585858;}
	.st5{fill-rule:evenodd;clip-rule:evenodd;fill:#676767;}
	.st6{fill:#414143;}
	.st7{fill:#FFFFFF;}
</style>
<sodipodi:namedview  bordercolor="#666666" borderopacity="1.0" id="base" inkscape:current-layer="svg2" inkscape:cx="869.07228" inkscape:cy="240.33382" inkscape:document-rotation="0" inkscape:document-units="px" inkscape:guide-bbox="true" inkscape:lockguides="false" inkscape:object-nodes="true" inkscape:object-paths="false" inkscape:pageopacity="1" inkscape:pageshadow="2" inkscape:snap-intersection-paths="false" inkscape:snap-nodes="true" inkscape:snap-smooth-nodes="true" inkscape:window-height="1000" inkscape:window-maximized="1" inkscape:window-width="1920" inkscape:window-x="0" inkscape:window-y="48" inkscape:zoom="0.45192705" pagecolor="#ffffff" showgrid="false" showguides="true">
	</sodipodi:namedview>
<g id="layer1" transform="translate(0,-610.51969)" inkscape:groupmode="layer" inkscape:label="Livello 1">
</g>
<g id="g2036" transform="matrix(1.1,0,0,0.44444,101.4198,239.35202)">
	<g id="g3712" transform="matrix(1.0526,0,0,1.2857,-1.3474133,-14.324267)" class="st0">
	</g>
</g>
<g id="g3541" transform="translate(103.9798,212.56695)">
</g>
<g id="g3536" transform="translate(103.9798,212.56695)">
</g>
<g id="g4076" transform="translate(-645.88727,-411.69958)">
	<g id="g4038" transform="translate(-988.44542,730.01011)">
	</g>
</g>
<g id="text3839" transform="matrix(1.3566899,-0.00504995,0.00550305,1.2449875,1041.1846,-229.00677)">
</g>
<path class="st1" d="M686.3,79.4c2.9-5.3,1-11.9-4.2-14.8c0,0,0,0,0,0l-75-41.8c-5.3-2.9-11.9-1-14.8,4.2c0,0,0,0,0,0l-88.5,158.7
	c-2.9,5.3-1,11.9,4.2,14.8c0,0,0,0,0,0l75,41.8c5.3,2.9,11.9,1,14.8-4.2c0,0,0,0,0,0L686.3,79.4z"/>
<path class="st2" d="M589.4,44.4l84,46.9l-71,127.3l-84-46.9L589.4,44.4z"/>
<path class="st3" d="M686.3,79.4c2.9-5.3,1-11.9-4.2-14.8c0,0,0,0,0,0l-75-41.8c-5.3-2.9-11.9-1-14.8,4.2c0,0,0,0,0,0l-88.5,158.7
	c-2.9,5.3-1,11.9,4.2,14.8c0,0,0,0,0,0l75,41.8c5.3,2.9,11.9,1,14.8-4.2c0,0,0,0,0,0L686.3,79.4z M520.9,171l69-123.9L670.5,92
	l-69,123.9L520.9,171z"/>
<path class="st3" d="M686.3,79.4c2.9-5.3,1-11.9-4.2-14.8c0,0,0,0,0,0l-75-41.8c-5.3-2.9-11.9-1-14.8,4.2c0,0,0,0,0,0l-88.5,158.7
	c-2.9,5.3-1,11.9,4.2,14.8c0,0,0,0,0,0l75,41.8c5.3,2.9,11.9,1,14.8-4.2c0,0,0,0,0,0L686.3,79.4z M518.3,171.7l70.9-127.3l84,46.8
	l-70.9,127.3L518.3,171.7z"/>
<path class="st4" d="M645.8,64.4c0.6-0.9,0.3-2.2-0.6-2.7c0,0-0.1-0.1-0.2-0.1l-17.3-9.7c-1-0.6-2.3-0.2-2.8,0.8
	c-0.6,1-0.2,2.3,0.8,2.8l17.3,9.7c0.9,0.6,2.2,0.3,2.7-0.6C645.8,64.5,645.8,64.4,645.8,64.4L645.8,64.4z M556.8,199
	c-4.9-2.8-11.2-1.1-14,3.8c-2.8,4.9-1.1,11.2,3.8,14c4.9,2.8,11.2,1.1,14-3.8c0,0,0-0.1,0.1-0.1c2.8-4.9,1.1-11.2-3.8-14
	c0,0,0,0,0,0L556.8,199z"/>
<path class="st5" d="M645.8,64.4c0.6-0.9,0.3-2.2-0.6-2.7c0,0-0.1-0.1-0.2-0.1l-17.3-9.7c-1-0.6-2.3-0.2-2.8,0.8
	c-0.6,1-0.2,2.3,0.8,2.8l17.3,9.7c0.9,0.6,2.2,0.3,2.7-0.6C645.8,64.5,645.8,64.4,645.8,64.4L645.8,64.4z M556.4,199.6
	c-4.5-2.6-10.3-1-12.8,3.6c-2.6,4.5-1,10.3,3.6,12.8s10.3,1,12.8-3.6c0,0,0-0.1,0.1-0.1C562.5,207.8,560.9,202.1,556.4,199.6
	L556.4,199.6z"/>
<path class="st6" d="M640.8,54c-0.6,1.1-2,1.5-3.1,0.9s-1.5-2-0.9-3.1c0.6-1.1,2-1.5,3.1-0.9S641.5,52.9,640.8,54z"/>
<path class="st7" d="M634.3,129.6c-2.6-0.2-5.2-0.9-7.7-1.9c3.2-0.1,6.3-1.4,8.7-3.6c-3,0.1-6.1-0.4-9-1.3
	c-1.8-7.1-9.1-11.5-16.2-9.7c-4.6,1.2-8.2,4.7-9.6,9.2c-9.1-5.7-15.4-15-17.2-25.6c-6.1,3.6-8.3,11.3-5.1,17.6
	c-1.8-1.1-3.3-2.6-4.5-4.4l-0.1,0.1c-3.1,5.5-1.9,12.5,3,16.6c-1.2-0.3-2.3-0.7-3.3-1.3c-0.7-0.4-1.4-0.9-2.1-1.4
	c-1.1,5.6,1.4,11.3,6.4,14.1c-5.9,0.9-12-0.1-17.2-3.1c-0.9-0.5-1.8-1.1-2.7-1.7c3.4,6.4,8.6,11.7,14.9,15.2
	c21.4,11.9,43,0.7,51.6-14.6c0.3-0.5,0.6-1,0.8-1.5C628.3,132,631.4,131.1,634.3,129.6"/>
</svg>
